<svg width="88" height="201" viewBox="0 0 88 201" fill="none" xmlns="http://www.w3.org/2000/svg">
<g clip-path="url(#clip0_101_2)">
<path d="M10 43.0031V21H87.3251V43.0031H10V43.0031ZM10 157V72.5501H87.3251V94.9723H32.8413V157H10V157Z" fill="#B40082"/>
<g filter="url(#filter0_d_101_2)">
<path d="M20.316 180.42C18.786 180.42 18.82 181.814 18.82 182.154V182.698H22.492V187.118H18.82V200.378H13.414V187.118H11V182.698H13.414V182.154C13.414 176.68 17.528 176 19.67 176C21.37 176 23.036 176.374 24.294 177.19L22.492 180.896C21.506 180.522 21.132 180.42 20.316 180.42ZM35.684 182.392C39.696 182.392 45 185.418 45 191.606C45 197.828 39.696 200.718 35.684 200.718C31.672 200.718 26.368 197.828 26.368 191.606C26.368 185.418 31.672 182.392 35.684 182.392V182.392ZM35.684 187.118C33.644 187.118 31.57 188.682 31.57 191.606C31.57 194.428 33.644 195.992 35.684 195.992C37.724 195.992 39.832 194.428 39.832 191.606C39.832 188.682 37.724 187.118 35.684 187.118V187.118ZM56.696 182.392C60.708 182.392 66.012 185.418 66.012 191.606C66.012 197.828 60.708 200.718 56.696 200.718C52.684 200.718 47.38 197.828 47.38 191.606C47.38 185.418 52.684 182.392 56.696 182.392V182.392ZM56.696 187.118C54.656 187.118 52.582 188.682 52.582 191.606C52.582 194.428 54.656 195.992 56.696 195.992C58.736 195.992 60.844 194.428 60.844 191.606C60.844 188.682 58.736 187.118 56.696 187.118V187.118ZM81.652 176.34H87.024V184.976V200.378H81.652V198.61C81.414 199.222 79.816 200.718 77.096 200.718C73.05 200.718 68.392 197.828 68.392 191.504C68.392 185.418 73.05 182.392 77.096 182.392C79.816 182.392 81.414 183.956 81.652 184.33V176.34V176.34ZM77.878 195.992C80.088 195.992 81.89 194.462 81.89 191.504C81.89 188.648 80.088 187.118 77.878 187.118C75.566 187.118 73.594 188.682 73.594 191.504C73.594 194.428 75.566 195.992 77.878 195.992Z" fill="#B40082"/>
</g>
</g>
<defs>
<filter id="filter0_d_101_2" x="7" y="176" width="84.024" height="32.718" filterUnits="userSpaceOnUse" color-interpolation-filters="sRGB">
<feFlood flood-opacity="0" result="BackgroundImageFix"/>
<feColorMatrix in="SourceAlpha" type="matrix" values="0 0 0 0 0 0 0 0 0 0 0 0 0 0 0 0 0 0 127 0" result="hardAlpha"/>
<feOffset dy="4"/>
<feGaussianBlur stdDeviation="2"/>
<feComposite in2="hardAlpha" operator="out"/>
<feColorMatrix type="matrix" values="0 0 0 0 0 0 0 0 0 0 0 0 0 0 0 0 0 0 0.25 0"/>
<feBlend mode="normal" in2="BackgroundImageFix" result="effect1_dropShadow_101_2"/>
<feBlend mode="normal" in="SourceGraphic" in2="effect1_dropShadow_101_2" result="shape"/>
</filter>
<clipPath id="clip0_101_2">
<rect width="87.3251" height="200.718" fill="white"/>
</clipPath>
</defs>
</svg>
